<svg width="126" height="123" viewBox="0 0 126 123" fill="none" xmlns="http://www.w3.org/2000/svg">
<path fill-rule="evenodd" clip-rule="evenodd" d="M62.7531 0C28.0923 0 0 28.0923 0 62.7531C0 90.4742 17.9753 113.999 42.9155 122.304C46.055 122.87 47.1875 120.938 47.1875 119.277C47.1875 117.786 47.1372 113.835 47.1183 108.607C29.6589 112.394 25.972 100.189 25.972 100.189C23.1282 92.9405 19.0071 91.009 19.0071 91.009C13.3132 87.1144 19.4413 87.2025 19.4413 87.2025C25.7455 87.6429 29.0486 93.6704 29.0486 93.6704C34.6482 103.259 43.746 100.491 47.3071 98.8861C47.8796 94.828 49.5154 92.0597 51.3023 90.4931C37.3725 88.9138 22.7255 83.5282 22.7255 59.4751C22.7255 52.6361 25.173 47.0239 29.1682 42.6449C28.5327 41.0531 26.3621 34.6671 29.7911 26.0349C29.7911 26.0349 35.0572 24.3425 47.0428 32.4587C52.1617 31.0662 57.4419 30.3554 62.7468 30.3447C68.0518 30.3533 73.3324 31.0642 78.4508 32.4587C90.4427 24.3362 95.7026 26.0349 95.7026 26.0349C99.1315 34.6671 96.9798 41.0531 96.3254 42.6449C100.352 47.0239 102.768 52.6298 102.768 59.4751C102.768 83.5911 88.1085 88.8887 74.1284 90.4427C76.362 92.3806 78.3753 96.2059 78.3753 102.057C78.3753 110.45 78.2998 117.22 78.2998 119.277C78.2998 120.957 79.4197 122.908 82.6222 122.291C107.55 113.974 125.506 90.4679 125.506 62.7531C125.506 28.0923 97.4139 0 62.7531 0Z" fill="white"/>
</svg>
