<svg width="69" height="72" viewBox="0 0 69 72" fill="none" xmlns="http://www.w3.org/2000/svg">
<path d="M63.7457 34.8302C67.1563 43.3065 61.2291 53.5372 52.6191 55.3305C59.3288 50.6591 63.5183 43.1544 63.7457 34.8302Z" fill="black"/>
<path d="M68.2333 50.7193C67.6772 57.8172 59.0911 62.366 52.9297 59.4585C59.2731 58.0459 63.4808 56.7525 68.2333 50.7193Z" fill="black"/>
<path d="M17.6224 25.4084C13.6285 16.9569 19.2998 6.50096 27.92 4.22891C21.3252 9.21987 17.4131 16.9911 17.6224 25.4084Z" fill="black"/>
<path d="M14.9372 19.5767C10.17 15.2036 12.0919 6.50328 17.5892 3.67117C14.9395 9.05358 14.0058 13.6 14.9372 19.5767Z" fill="black"/>
<path d="M1.68406 15.4465C2.78262 14.5846 4.07906 14.1306 5.44032 14.1306C13.6352 14.1306 15.1044 25.1973 16.9229 29.5174C16.9229 29.5174 25.3258 11.2785 28.2485 5.26056C31.2621 -0.947189 37.6954 0.335628 39.5798 3.71481C44.0559 -1.09457 52.5134 2.78807 51.4354 8.63503C57.2397 8.17284 59.5858 14.1094 58.2974 17.9154C62.7837 17.7716 64.8808 23.5242 63.3637 27.6426C63.2852 27.8572 55.3201 44.1094 53.1753 49.6463C52.9263 50.2888 52.6749 50.9762 52.4111 51.7002C50.6768 56.4541 48.3012 62.9649 42.358 68.194C39.7993 70.4449 36.2568 71.6345 32.1105 71.6345C24.8027 71.6345 16.6659 67.8745 11.38 62.0535C6.64578 56.8409 4.37702 50.4421 4.81826 43.5482C5.21401 37.351 3.31257 31.5123 1.78528 26.8197C0.12834 21.7273 -1.17946 17.7044 1.68406 15.4465ZM8.44714 43.343C7.52258 57.0531 20.7769 68.6209 32.0218 68.6209C35.4574 68.6209 39.0157 68.0455 41.239 66.0894C47.6143 60.4795 49.2144 53.5372 51.0623 48.7761C53.2697 43.0801 58.6874 32.1349 61.3133 26.6287C62.388 24.3743 60.5923 19.5767 57.4649 19.5767L48.4456 39.4651L45.0282 41.5921C45.0282 41.5921 52.8546 23.9086 55.3326 17.814C56.7792 14.2556 54.2864 9.95911 50.927 10.5192L39.7299 35.2983L36.3114 37.43L49.3622 8.85787C49.4145 3.79381 42.731 3.71481 41.1776 6.67189C37.2462 14.1566 29.8656 30.582 29.8656 30.582L26.4494 32.7126L38.7007 5.77935C36.308 2.53222 32.0866 2.98733 30.2671 6.92893C28.0813 11.6629 18.8255 32.2245 18.8255 32.2245C27.963 35.7758 34.2007 46.0702 27.6696 56.2183C32.852 45.1234 23.6712 37.2826 18.2477 34.6911C16.195 33.7089 15.4399 31.8519 15.4399 31.8519C15.4422 31.8519 15.4433 31.8531 15.4445 31.8531C14.7292 30.5101 14.7712 28.7144 13.9183 25.808C12.0703 19.5177 9.53546 16.1845 5.8156 16.1845C4.95813 16.1845 3.87777 16.8495 3.38194 17.6077C0.876635 21.4408 9.30688 30.6044 8.44714 43.343Z" fill="black"/>
</svg>
